<svg width="46" height="35" viewBox="0 0 46 35" fill="none" xmlns="http://www.w3.org/2000/svg">
<rect y="0.5" width="46" height="34" rx="10" fill="#5DB7DE"/>
<path d="M10.78 13.491C11.144 13.4217 11.5427 13.3697 11.976 13.335C12.418 13.2917 12.8557 13.27 13.289 13.27C13.7397 13.27 14.1903 13.309 14.641 13.387C15.1003 13.4563 15.512 13.6037 15.876 13.829C16.24 14.0457 16.5347 14.3533 16.76 14.752C16.994 15.142 17.111 15.6533 17.111 16.286C17.111 16.858 17.0113 17.3433 16.812 17.742C16.6127 18.132 16.3483 18.4527 16.019 18.704C15.6897 18.9553 15.3127 19.1373 14.888 19.25C14.472 19.3627 14.0387 19.419 13.588 19.419C13.5447 19.419 13.4753 19.419 13.38 19.419C13.2847 19.419 13.185 19.419 13.081 19.419C12.977 19.4103 12.873 19.4017 12.769 19.393C12.6737 19.3843 12.6043 19.3757 12.561 19.367V22.5H10.78V13.491ZM13.432 14.804C13.2587 14.804 13.094 14.8127 12.938 14.83C12.782 14.8387 12.6563 14.8517 12.561 14.869V17.82C12.5957 17.8287 12.6477 17.8373 12.717 17.846C12.7863 17.8547 12.86 17.8633 12.938 17.872C13.016 17.872 13.0897 17.872 13.159 17.872C13.237 17.872 13.2933 17.872 13.328 17.872C13.562 17.872 13.7917 17.8503 14.017 17.807C14.251 17.7637 14.459 17.6857 14.641 17.573C14.823 17.4517 14.966 17.287 15.07 17.079C15.1827 16.871 15.239 16.598 15.239 16.26C15.239 15.974 15.187 15.74 15.083 15.558C14.979 15.3673 14.8403 15.2157 14.667 15.103C14.5023 14.9903 14.3117 14.9123 14.095 14.869C13.8783 14.8257 13.6573 14.804 13.432 14.804ZM19.5195 13.4C19.7015 13.374 19.9051 13.3523 20.1305 13.335C20.3645 13.3177 20.6028 13.3047 20.8455 13.296C21.0881 13.2873 21.3221 13.283 21.5475 13.283C21.7815 13.2743 21.9895 13.27 22.1715 13.27C22.9775 13.27 23.6665 13.3827 24.2385 13.608C24.8105 13.8333 25.2741 14.1497 25.6295 14.557C25.9848 14.9643 26.2448 15.4497 26.4095 16.013C26.5741 16.5763 26.6565 17.196 26.6565 17.872C26.6565 18.4873 26.5785 19.081 26.4225 19.653C26.2665 20.225 26.0065 20.732 25.6425 21.174C25.2785 21.616 24.7975 21.9713 24.1995 22.24C23.6101 22.5087 22.8778 22.643 22.0025 22.643C21.8638 22.643 21.6775 22.6387 21.4435 22.63C21.2181 22.6213 20.9798 22.6083 20.7285 22.591C20.4858 22.5823 20.2518 22.5693 20.0265 22.552C19.8011 22.5433 19.6321 22.5303 19.5195 22.513V13.4ZM22.3145 14.856C22.1238 14.856 21.9288 14.8603 21.7295 14.869C21.5388 14.8777 21.3958 14.8907 21.3005 14.908V21.005C21.3351 21.0137 21.3915 21.0223 21.4695 21.031C21.5561 21.031 21.6471 21.0353 21.7425 21.044C21.8378 21.044 21.9288 21.0483 22.0155 21.057C22.1021 21.057 22.1671 21.057 22.2105 21.057C22.7131 21.057 23.1291 20.9703 23.4585 20.797C23.7965 20.615 24.0608 20.3767 24.2515 20.082C24.4508 19.7873 24.5895 19.4493 24.6675 19.068C24.7455 18.678 24.7845 18.2793 24.7845 17.872C24.7845 17.5167 24.7498 17.1613 24.6805 16.806C24.6111 16.442 24.4811 16.117 24.2905 15.831C24.1085 15.545 23.8571 15.311 23.5365 15.129C23.2158 14.947 22.8085 14.856 22.3145 14.856ZM29.2364 13.4H34.6314V14.986H31.0174V17.235H34.3454V18.821H31.0174V22.5H29.2364V13.4Z" fill="white"/>
</svg>
